{"title":"The Company Men-AC3-XviD-BRRip 2010 TBS","uid":6406250,"size":1674271492,"categoryP":"video","categoryS":"movies","magnet":"?xt=urn:btih:ab5a11c45cdc10901aa83ec8809c65f38e917a94&amp;dn=The+Company+Men-AC3-XviD-BRRip+2010+TBS&amp;tr=udp%3A%2F%2Ftracker.openbittorrent.com%3A80&amp;tr=udp%3A%2F%2Fopen.demonii.com%3A1337&amp;tr=udp%3A%2F%2Ftracker.coppersurfer.tk%3A6969&amp;tr=udp%3A%2F%2Fexodus.desync.com%3A6969","seeders":0,"leechers":1,"uploader":"FatFreddy30","files":-1,"time":1305816998,"description":"The story centers on a year in the life of three men trying to survive a round of corporate downsizing at a major company - and how that affects them, their families, and their communities...\n &lt;a href=&quot;\nhttp://www.imdb.com/title/tt1172991/&quot; rel=&quot;nofollow&quot; target=&quot;_NEW&quot;&gt;\nhttp://www.imdb.com/title/tt1172991/&lt;/a&gt;\n\nSubs: Dutch, English.\n\n\nWanneer het succesvolle bedrijf dat Gene McClary heeft opgebouwd uit zijn handen glipt, raakt hij in conflict met zijn partners om zijn jarenlange collega Phil te beschermen. Daarnaast zoekt hij troost in een affaire met zijn collega Sally. Sally ontslaat de arrogante bedrijfsmedewerker Bobby Walker, die zich hierna wanhopig probeert vast te houden aan de symbolen van zijn status; zijn hoge salaris en zijn Porsche. Bobby wordt nu gedwongen een baan in de bouw te accepteren, die zijn hardwerkende schoonbroer Jack Dolan hem aanbiedt...\n &lt;a href=&quot;\nhttp://www.moviemeter.nl/film/61384&quot; rel=&quot;nofollow&quot; target=&quot;_NEW&quot;&gt;\nhttp://www.moviemeter.nl/film/61384&lt;/a&gt;\n\nSubs: Engels, Nederlands.\n\nGeneral\nComplete name                    : The Company Men-AC3-XviD-BRRip 2010.avi\nFormat                           : AVI\nFormat/Info                      : Audio Video Interleave\nFile size                        : 1.56 GiB\nDuration                         : 1h 44mn\nOverall bit rate                 : 2 133 Kbps\nWriting application              : VirtualDubMod 1.5.4.1 (build 2178/release)\nWriting library                  : VirtualDubMod build 2178/release\nSource                           : The.Company.Men.LIMITED.720p.BluRay.x264-DiVERSiFY\n\nVideo\nID                               : 0\nFormat                           : MPEG-4 Visual\nFormat profile                   : Simple@L3\nFormat settings, BVOP            : No\nFormat settings, QPel            : No\nFormat settings, GMC             : No warppoints\nFormat settings, Matrix          : Default (H.263)\nCodec ID                         : XVID\nCodec ID/Hint                    : XviD\nDuration                         : 1h 44mn\nBit rate                         : 1 676 Kbps\nWidth                            : 720 pixels\nHeight                           : 400 pixels\nDisplay aspect ratio             : 16:9\nFrame rate                       : 23.976 fps\nResolution                       : 8 bits\nColorimetry                      : 4:2:0\nScan type                        : Progressive\nBits/(Pixel*Frame)               : 0.243\nStream size                      : 1.22 GiB (79%)\nWriting library                  : XviD 1.1.2 (UTC 2006-11-01)\n\nAudio\nID                               : 1\nFormat                           : AC-3\nFormat/Info                      : Audio Coding 3\nCodec ID                         : 2000\nDuration                         : 1h 44mn\nBit rate mode                    : Constant\nBit rate                         : 448 Kbps\nChannel(s)                       : 6 channels\nChannel positions                : Front: L C R, Surround: L R, LFE\nSampling rate                    : 48.0 KHz\nStream size                      : 335 MiB (21%)\nAlignment                        : Split accross interleaves\nInterleave, duration             : 42 ms (1.00 video frame)\nInterleave, preload duration     : 500 ms\n\nEnjoy...\n\nTBS.","torrent":{"xt":"urn:btih:ab5a11c45cdc10901aa83ec8809c65f38e917a94","amp;dn":"The+Company+Men-AC3-XviD-BRRip+2010+TBS","amp;tr":["udp%3A%2F%2Ftracker.openbittorrent.com%3A80","udp%3A%2F%2Fopen.demonii.com%3A1337","udp%3A%2F%2Ftracker.coppersurfer.tk%3A6969","udp%3A%2F%2Fexodus.desync.com%3A6969"],"infoHash":"ab5a11c45cdc10901aa83ec8809c65f38e917a94","infoHashBuffer":{"type":"Buffer","data":[171,90,17,196,92,220,16,144,26,168,62,200,128,156,101,243,142,145,122,148]},"announce":[],"urlList":[]}}